<!DOCTYPE svg PUBLIC "-//W3C//DTD SVG 1.1//EN" "http://www.w3.org/Graphics/SVG/1.1/DTD/svg11.dtd">
<!-- Uploaded to: SVG Repo, www.svgrepo.com, Transformed by: SVG Repo Mixer Tools -->
<svg fill="#ffffff" width="800px" height="800px" viewBox="0 -15.01 44.111 44.111" xmlns="http://www.w3.org/2000/svg">
<g id="SVGRepo_bgCarrier" stroke-width="0"/>
<g id="SVGRepo_tracerCarrier" stroke-linecap="round" stroke-linejoin="round" stroke="#808000" stroke-width="0.88222"> <g id="Train" transform="translate(-642.389 -380.3)"> <path id="Path_69" data-name="Path 69" d="M686,393.4H642.9a.5.5,0,0,0,0,1H686a.5.5,0,0,0,0-1Z"/> <path id="Path_70" data-name="Path 70" d="M644.9,391.5h40.3a.9.9,0,0,0,.9-.9l-.5-8.4a.9.9,0,0,0-.9-.9H679l-1-1h-5l-1,1h-9.2l-1-1H657l-1,1h-1.4a6.069,6.069,0,0,0-4.9,1.7l-6.4,5.7C643.2,388.7,640.5,391.5,644.9,391.5Zm32.2-6.7h6v3h-6Zm-8.5,0h6v3h-6Zm-8.5,0h6v3h-6Zm-8,0h5.3v3h-8.8Z"/> </g> </g>
<g id="SVGRepo_iconCarrier"> <g id="Train" transform="translate(-642.389 -380.3)"> <path id="Path_69" data-name="Path 69" d="M686,393.4H642.9a.5.5,0,0,0,0,1H686a.5.5,0,0,0,0-1Z"/> <path id="Path_70" data-name="Path 70" d="M644.9,391.5h40.3a.9.9,0,0,0,.9-.9l-.5-8.4a.9.9,0,0,0-.9-.9H679l-1-1h-5l-1,1h-9.2l-1-1H657l-1,1h-1.4a6.069,6.069,0,0,0-4.9,1.7l-6.4,5.7C643.2,388.7,640.5,391.5,644.9,391.5Zm32.2-6.7h6v3h-6Zm-8.5,0h6v3h-6Zm-8.5,0h6v3h-6Zm-8,0h5.3v3h-8.8Z"/> </g> </g>
</svg>